<svg width="1133" height="858" viewBox="0 0 1133 858" fill="none" xmlns="http://www.w3.org/2000/svg">
<g filter="url(#filter0_f_141_4762)">
<ellipse cx="659.542" cy="308.371" rx="461.5" ry="345.389" transform="rotate(9.57911 659.542 308.371)" fill="#7878A4" fill-opacity="0.12"/>
</g>
<g filter="url(#filter1_f_141_4762)">
<path d="M794.777 356.166L810.577 383.532C812.75 387.295 811.427 392.164 807.638 394.351L669.862 473.897C666.073 476.084 661.195 474.795 659.023 471.032L643.222 443.666C627.462 416.368 628.252 384.167 642.535 358.315C658.188 360.132 674.632 357.115 689.374 348.604C704.117 340.093 714.952 327.36 721.205 312.894C728.149 312.99 735.144 313.969 741.864 315.745C763.433 321.445 782.769 335.368 794.777 356.166Z" fill="#B2B2CC"/>
<path d="M683.45 338.341C713.886 320.768 724.412 282.018 706.96 251.79C689.508 221.562 650.687 211.303 620.25 228.876C589.814 246.448 579.287 285.198 596.74 315.426C614.192 345.654 653.013 355.913 683.45 338.341Z" fill="#B2B2CC"/>
</g>
<g filter="url(#filter2_f_141_4762)">
<path d="M754.777 326.166L770.577 353.532C772.75 357.295 771.427 362.164 767.638 364.351L629.862 443.897C626.073 446.084 621.195 444.795 619.023 441.032L603.222 413.666C587.462 386.368 588.252 354.167 602.535 328.315C618.188 330.132 634.632 327.115 649.374 318.604C664.117 310.093 674.952 297.36 681.205 282.894C688.149 282.99 695.144 283.969 701.864 285.745C723.433 291.445 742.769 305.368 754.777 326.166Z" fill="white"/>
<path d="M643.45 308.341C673.886 290.768 684.412 252.018 666.96 221.79C649.508 191.562 610.687 181.303 580.25 198.876C549.814 216.448 539.287 255.198 556.74 285.426C574.192 315.654 613.013 325.913 643.45 308.341Z" fill="white"/>
</g>
<path d="M774.777 346.166L790.577 373.532C792.75 377.295 791.427 382.164 787.638 384.351L649.862 463.897C646.073 466.084 641.195 464.795 639.023 461.032L623.222 433.666C607.462 406.368 608.252 374.167 622.535 348.315C638.188 350.132 654.632 347.115 669.374 338.604C684.117 330.093 694.952 317.36 701.205 302.894C708.149 302.99 715.144 303.969 721.864 305.745C743.433 311.445 762.769 325.368 774.777 346.166Z" fill="#B2B2CC"/>
<path d="M774.777 346.166L790.577 373.532C792.75 377.295 791.427 382.164 787.638 384.351L649.862 463.897C646.073 466.084 641.195 464.795 639.023 461.032L623.222 433.666C607.462 406.368 608.252 374.167 622.535 348.315C638.188 350.132 654.632 347.115 669.374 338.604C684.117 330.093 694.952 317.36 701.205 302.894C708.149 302.99 715.144 303.969 721.864 305.745C743.433 311.445 762.769 325.368 774.777 346.166Z" fill="url(#paint0_linear_141_4762)"/>
<path d="M663.45 328.341C693.886 310.768 704.412 272.018 686.96 241.79C669.508 211.562 630.687 201.303 600.25 218.876C569.814 236.448 559.287 275.198 576.74 305.426C594.192 335.654 633.013 345.913 663.45 328.341Z" fill="#B2B2CC"/>
<path d="M663.45 328.341C693.886 310.768 704.412 272.018 686.96 241.79C669.508 211.562 630.687 201.303 600.25 218.876C569.814 236.448 559.287 275.198 576.74 305.426C594.192 335.654 633.013 345.913 663.45 328.341Z" fill="url(#paint1_linear_141_4762)"/>
<defs>
<filter id="filter0_f_141_4762" x="0.8125" y="-240.829" width="1317.46" height="1098.4" filterUnits="userSpaceOnUse" color-interpolation-filters="sRGB">
<feFlood flood-opacity="0" result="BackgroundImageFix"/>
<feBlend mode="normal" in="SourceGraphic" in2="BackgroundImageFix" result="shape"/>
<feGaussianBlur stdDeviation="100" result="effect1_foregroundBlur_141_4762"/>
</filter>
<filter id="filter1_f_141_4762" x="548.312" y="180.289" width="303.312" height="334.674" filterUnits="userSpaceOnUse" color-interpolation-filters="sRGB">
<feFlood flood-opacity="0" result="BackgroundImageFix"/>
<feBlend mode="normal" in="SourceGraphic" in2="BackgroundImageFix" result="shape"/>
<feGaussianBlur stdDeviation="20" result="effect1_foregroundBlur_141_4762"/>
</filter>
<filter id="filter2_f_141_4762" x="508.312" y="150.289" width="303.312" height="334.674" filterUnits="userSpaceOnUse" color-interpolation-filters="sRGB">
<feFlood flood-opacity="0" result="BackgroundImageFix"/>
<feBlend mode="normal" in="SourceGraphic" in2="BackgroundImageFix" result="shape"/>
<feGaussianBlur stdDeviation="20" result="effect1_foregroundBlur_141_4762"/>
</filter>
<linearGradient id="paint0_linear_141_4762" x1="618.078" y1="271.642" x2="691.863" y2="252.575" gradientUnits="userSpaceOnUse">
<stop stop-color="#DADAEA"/>
<stop offset="0.947267" stop-color="#F4F4FC"/>
</linearGradient>
<linearGradient id="paint1_linear_141_4762" x1="618.078" y1="271.642" x2="691.863" y2="252.575" gradientUnits="userSpaceOnUse">
<stop stop-color="#DADAEA"/>
<stop offset="0.947267" stop-color="#F4F4FC"/>
</linearGradient>
</defs>
</svg>
